<svg width="224" height="61" viewBox="0 0 224 61" fill="none" xmlns="http://www.w3.org/2000/svg">
<path d="M138.95 35.475C137.55 36.6917 136.025 37.3 134.375 37.3C131.975 37.3 130.117 36.375 128.8 34.525C127.767 33.0583 127.25 31.3 127.25 29.25C127.25 26.9167 127.892 24.925 129.175 23.275C130.442 21.675 132.05 20.875 134 20.875C135.733 20.875 137.317 21.45 138.75 22.6L137.825 24C136.692 23.25 135.567 22.875 134.45 22.875C132.933 22.875 131.742 23.5 130.875 24.75C130.092 25.8833 129.7 27.3833 129.7 29.25C129.7 31.1 130.192 32.5833 131.175 33.7C132.075 34.7333 133.242 35.25 134.675 35.25C135.758 35.25 136.875 34.8583 138.025 34.075L138.95 35.475ZM144.759 37H142.459V21.175H144.759V27.825H152.384V21.175H154.709V37H152.384V29.75H144.759V37ZM161.507 23.975V37H159.207V21.175H162.157C163.44 23.8417 164.79 27.4917 166.207 32.125C166.524 33.1583 166.765 33.95 166.932 34.5C167.082 34.0167 167.249 33.4833 167.432 32.9C168.999 27.9 170.432 23.9917 171.732 21.175H174.707V37H172.382V23.925C171.732 26.2417 170.232 30.6 167.882 37H166.032C165.282 35.25 164.424 32.9917 163.457 30.225C162.507 27.4417 161.857 25.3583 161.507 23.975ZM179.227 35.8C179.227 35.7833 179.227 35.7667 179.227 35.75C179.26 34.9167 179.702 34.5 180.552 34.5C181.435 34.5 181.877 34.9333 181.877 35.8C181.877 36.6833 181.435 37.125 180.552 37.125C179.669 37.125 179.227 36.6833 179.227 35.8ZM197.955 30.375C197.955 34.9917 196.022 37.3 192.155 37.3C188.289 37.3 186.355 34.9917 186.355 30.375V21.175H188.705V30.9C188.705 33.8333 189.855 35.3 192.155 35.3C194.455 35.3 195.605 33.8333 195.605 30.9V21.175H197.955V30.375ZM211.344 23.2C209.294 26.1333 207.178 29.3917 204.994 32.975C204.261 34.175 203.811 34.875 203.644 35.075H211.519V37H200.819V35.225C202.486 32.825 204.553 29.675 207.019 25.775C208.036 24.1583 208.619 23.2667 208.769 23.1H201.044V21.175H211.344V23.2Z" fill="#FAFF00"/>
<rect x="114" width="2" height="57" fill="white"/>
<path d="M63.0547 16.2109C62.2943 16.2109 61.5938 16.0833 60.9531 15.8281C60.3177 15.5729 59.7682 15.1927 59.3047 14.6875C58.8411 14.1823 58.4818 13.5521 58.2266 12.7969C57.9714 12.0417 57.8438 11.1745 57.8438 10.1953C57.8438 9.22135 57.9661 8.3724 58.2109 7.64844C58.4609 6.92448 58.8229 6.29427 59.2969 5.75781C59.7604 5.23698 60.3099 4.84115 60.9453 4.57031C61.5807 4.29427 62.2917 4.15625 63.0781 4.15625C63.4688 4.15625 63.8333 4.1849 64.1719 4.24219C64.5156 4.29948 64.8333 4.3724 65.125 4.46094C65.375 4.53906 65.6302 4.63802 65.8906 4.75781C66.1562 4.8724 66.4167 5 66.6719 5.14062V7.00781H66.5469C66.4115 6.88281 66.237 6.73177 66.0234 6.55469C65.8099 6.3776 65.5495 6.20312 65.2422 6.03125C64.9453 5.86979 64.6224 5.73698 64.2734 5.63281C63.9245 5.52865 63.5208 5.47656 63.0625 5.47656C62.5677 5.47656 62.099 5.57812 61.6562 5.78125C61.2135 5.98438 60.8255 6.28385 60.4922 6.67969C60.1641 7.07552 59.9089 7.57292 59.7266 8.17188C59.5443 8.77083 59.4531 9.44531 59.4531 10.1953C59.4531 10.9922 59.5495 11.6797 59.7422 12.2578C59.9349 12.8307 60.1979 13.3151 60.5312 13.7109C60.8542 14.0964 61.2344 14.388 61.6719 14.5859C62.1094 14.7786 62.5729 14.875 63.0625 14.875C63.5104 14.875 63.9245 14.8203 64.3047 14.7109C64.6849 14.6016 65.0234 14.4635 65.3203 14.2969C65.6068 14.1354 65.8542 13.9714 66.0625 13.8047C66.2708 13.6328 66.4349 13.487 66.5547 13.3672H66.6719V15.2109C66.4167 15.3307 66.1745 15.4453 65.9453 15.5547C65.7214 15.6641 65.4479 15.7708 65.125 15.875C64.7865 15.9844 64.4714 16.0677 64.1797 16.125C63.8932 16.1823 63.5182 16.2109 63.0547 16.2109ZM76.5625 16H75.0156V10.3047H69.6641V16H68.1172V4.36719H69.6641V8.92969H75.0156V4.36719H76.5625V16ZM82.9922 16H78.4766V14.8125H79.9609V5.55469H78.4766V4.36719H82.9922V5.55469H81.5078V14.8125H82.9922V16ZM93.2188 16H91.4844L86.3438 5.96875V16H84.8984V4.36719H87.0938L91.7734 13.5781V4.36719H93.2188V16ZM94.3281 16L98.25 4.36719H100.156L104.078 16H102.445L101.391 12.75H96.9453L95.8906 16H94.3281ZM100.961 11.4297L99.1641 5.94531L97.375 11.4297H100.961ZM28.0078 35H26.4609V24.9766L23.4297 31.7969H22.4922L19.4844 24.9766V35H18.0391V23.3672H20.1484L23.0547 29.8438L25.8594 23.3672H28.0078V35ZM29.1094 35L33.0312 23.3672H34.9375L38.8594 35H37.2266L36.1719 31.75H31.7266L30.6719 35H29.1094ZM35.7422 30.4297L33.9453 24.9453L32.1562 30.4297H35.7422ZM44.5078 35.2109C43.7474 35.2109 43.0469 35.0833 42.4062 34.8281C41.7708 34.5729 41.2214 34.1927 40.7578 33.6875C40.2943 33.1823 39.9349 32.5521 39.6797 31.7969C39.4245 31.0417 39.2969 30.1745 39.2969 29.1953C39.2969 28.2214 39.4193 27.3724 39.6641 26.6484C39.9141 25.9245 40.276 25.2943 40.75 24.7578C41.2135 24.237 41.763 23.8411 42.3984 23.5703C43.0339 23.2943 43.7448 23.1562 44.5312 23.1562C44.9219 23.1562 45.2865 23.1849 45.625 23.2422C45.9688 23.2995 46.2865 23.3724 46.5781 23.4609C46.8281 23.5391 47.0833 23.638 47.3438 23.7578C47.6094 23.8724 47.8698 24 48.125 24.1406V26.0078H48C47.8646 25.8828 47.6901 25.7318 47.4766 25.5547C47.263 25.3776 47.0026 25.2031 46.6953 25.0312C46.3984 24.8698 46.0755 24.737 45.7266 24.6328C45.3776 24.5286 44.974 24.4766 44.5156 24.4766C44.0208 24.4766 43.5521 24.5781 43.1094 24.7812C42.6667 24.9844 42.2786 25.2839 41.9453 25.6797C41.6172 26.0755 41.362 26.5729 41.1797 27.1719C40.9974 27.7708 40.9062 28.4453 40.9062 29.1953C40.9062 29.9922 41.0026 30.6797 41.1953 31.2578C41.388 31.8307 41.651 32.3151 41.9844 32.7109C42.3073 33.0964 42.6875 33.388 43.125 33.5859C43.5625 33.7786 44.026 33.875 44.5156 33.875C44.9635 33.875 45.3776 33.8203 45.7578 33.7109C46.138 33.6016 46.4766 33.4635 46.7734 33.2969C47.0599 33.1354 47.3073 32.9714 47.5156 32.8047C47.724 32.6328 47.888 32.487 48.0078 32.3672H48.125V34.2109C47.8698 34.3307 47.6276 34.4453 47.3984 34.5547C47.1745 34.6641 46.901 34.7708 46.5781 34.875C46.2396 34.9844 45.9245 35.0677 45.6328 35.125C45.3464 35.1823 44.9714 35.2109 44.5078 35.2109ZM58.0156 35H56.4688V29.3047H51.1172V35H49.5703V23.3672H51.1172V27.9297H56.4688V23.3672H58.0156V35ZM64.4453 35H59.9297V33.8125H61.4141V24.5547H59.9297V23.3672H64.4453V24.5547H62.9609V33.8125H64.4453V35ZM74.6719 35H72.9375L67.7969 24.9688V35H66.3516V23.3672H68.5469L73.2266 32.5781V23.3672H74.6719V35ZM77.0391 35V23.3672H84.3125V24.7422H78.5859V27.9297H83.9219V29.3047H78.5859V33.625H84.3125V35H77.0391ZM95.0312 35H93.0234L89.3359 30.375H87.5703V35H86.0234V23.3672H89.0234C89.6901 23.3672 90.2474 23.4036 90.6953 23.4766C91.1484 23.5495 91.5781 23.7188 91.9844 23.9844C92.3906 24.2448 92.7109 24.5807 92.9453 24.9922C93.1849 25.4036 93.3047 25.9141 93.3047 26.5234C93.3047 27.3776 93.0885 28.0911 92.6562 28.6641C92.224 29.237 91.6354 29.6615 90.8906 29.9375L95.0312 35ZM91.6875 26.6406C91.6875 26.3021 91.6276 26.0026 91.5078 25.7422C91.388 25.4766 91.2031 25.2604 90.9531 25.0938C90.7344 24.9479 90.4792 24.8464 90.1875 24.7891C89.8958 24.7266 89.5339 24.6953 89.1016 24.6953H87.5703V29.0859H88.9297C89.3724 29.0859 89.7708 29.0469 90.125 28.9688C90.4792 28.8906 90.7812 28.7292 91.0312 28.4844C91.2552 28.2656 91.4193 28.0052 91.5234 27.7031C91.6328 27.401 91.6875 27.0469 91.6875 26.6406ZM104.102 23.3672L100.172 29.8516V35H98.625V30.0156L94.6953 23.3672H96.4141L99.4141 28.5L102.461 23.3672H104.102ZM51.5078 54H46.9922V52.8125H48.4766V43.5547H46.9922V42.3672H51.5078V43.5547H50.0234V52.8125H51.5078V54ZM63.3828 54H61.8359V43.9766L58.8047 50.7969H57.8672L54.8594 43.9766V54H53.4141V42.3672H55.5234L58.4297 48.8438L61.2344 42.3672H63.3828V54ZM73.0859 45.875C73.0859 46.3802 72.9948 46.8594 72.8125 47.3125C72.6354 47.7604 72.388 48.1432 72.0703 48.4609C71.6693 48.8568 71.1979 49.1562 70.6562 49.3594C70.1146 49.5625 69.4297 49.6641 68.6016 49.6641H67.2891V54H65.7422V42.3672H68.6641C69.3516 42.3672 69.9375 42.4245 70.4219 42.5391C70.9062 42.6536 71.3333 42.8385 71.7031 43.0938C72.1354 43.3906 72.474 43.7682 72.7188 44.2266C72.9635 44.6797 73.0859 45.2292 73.0859 45.875ZM71.4766 45.9141C71.4766 45.513 71.4062 45.1641 71.2656 44.8672C71.1302 44.5703 70.9219 44.3281 70.6406 44.1406C70.3958 43.9792 70.1094 43.8646 69.7812 43.7969C69.4583 43.7292 69.0547 43.6953 68.5703 43.6953H67.2891V48.3438H68.3438C68.9688 48.3438 69.474 48.2943 69.8594 48.1953C70.2448 48.0911 70.5651 47.9089 70.8203 47.6484C71.0495 47.4141 71.2161 47.1589 71.3203 46.8828C71.4245 46.6068 71.4766 46.2839 71.4766 45.9141ZM82.7969 43.7031C83.2396 44.2135 83.5833 44.8464 83.8281 45.6016C84.0729 46.3568 84.1953 47.2188 84.1953 48.1875C84.1953 49.1302 84.0755 49.9818 83.8359 50.7422C83.5964 51.5026 83.25 52.1406 82.7969 52.6562C82.3229 53.1979 81.7682 53.599 81.1328 53.8594C80.5026 54.1146 79.8073 54.2422 79.0469 54.2422C78.2604 54.2422 77.5521 54.1094 76.9219 53.8438C76.2917 53.5781 75.75 53.1823 75.2969 52.6562C74.849 52.1406 74.5052 51.5052 74.2656 50.75C74.026 49.9948 73.9062 49.1406 73.9062 48.1875C73.9062 47.2083 74.026 46.349 74.2656 45.6094C74.5104 44.8698 74.8568 44.2344 75.3047 43.7031C75.7526 43.1875 76.2917 42.7969 76.9219 42.5312C77.5573 42.2604 78.2656 42.125 79.0469 42.125C79.8385 42.125 80.5521 42.263 81.1875 42.5391C81.8229 42.8151 82.3594 43.2031 82.7969 43.7031ZM82.5859 48.1875C82.5859 47.4167 82.5026 46.7344 82.3359 46.1406C82.1693 45.5469 81.9349 45.0547 81.6328 44.6641C81.3255 44.263 80.9531 43.9635 80.5156 43.7656C80.0833 43.5625 79.5964 43.4609 79.0547 43.4609C78.4922 43.4609 78 43.5599 77.5781 43.7578C77.1615 43.9505 76.7917 44.2526 76.4688 44.6641C76.1615 45.0599 75.9245 45.5573 75.7578 46.1562C75.5964 46.7552 75.5156 47.4323 75.5156 48.1875C75.5156 49.7135 75.8359 50.8828 76.4766 51.6953C77.1172 52.5026 77.9766 52.9062 79.0547 52.9062C80.1328 52.9062 80.9896 52.5026 81.625 51.6953C82.2656 50.8828 82.5859 49.7135 82.5859 48.1875ZM94.9062 54H92.8984L89.2109 49.375H87.4453V54H85.8984V42.3672H88.8984C89.5651 42.3672 90.1224 42.4036 90.5703 42.4766C91.0234 42.5495 91.4531 42.7188 91.8594 42.9844C92.2656 43.2448 92.5859 43.5807 92.8203 43.9922C93.0599 44.4036 93.1797 44.9141 93.1797 45.5234C93.1797 46.3776 92.9635 47.0911 92.5312 47.6641C92.099 48.237 91.5104 48.6615 90.7656 48.9375L94.9062 54ZM91.5625 45.6406C91.5625 45.3021 91.5026 45.0026 91.3828 44.7422C91.263 44.4766 91.0781 44.2604 90.8281 44.0938C90.6094 43.9479 90.3542 43.8464 90.0625 43.7891C89.7708 43.7266 89.4089 43.6953 88.9766 43.6953H87.4453V48.0859H88.8047C89.2474 48.0859 89.6458 48.0469 90 47.9688C90.3542 47.8906 90.6562 47.7292 90.9062 47.4844C91.1302 47.2656 91.2943 47.0052 91.3984 46.7031C91.5078 46.401 91.5625 46.0469 91.5625 45.6406ZM98.5547 54V43.7422H94.6484V42.3672H104.008V43.7422H100.102V54H98.5547Z" fill="white"/>
</svg>
